<?xml version="1.0" encoding="UTF-8" ?>
<!DOCTYPE svg PUBLIC "-//W3C//DTD SVG 1.1//EN" "http://www.w3.org/Graphics/SVG/1.1/DTD/svg11.dtd">
<svg width="512pt" height="256pt" viewBox="0 0 512 256" version="1.1" xmlns="http://www.w3.org/2000/svg">
<path fill="#ffffff" d=" M 0.00 0.00 L 512.00 0.00 L 512.00 256.00 L 0.00 256.00 L 0.00 0.00 Z" />
<path fill="#040706" d=" M 229.69 60.79 C 231.46 60.58 233.24 60.34 235.00 60.02 C 235.00 62.36 235.00 64.70 235.00 67.04 C 236.59 66.67 238.17 66.18 239.81 66.01 C 244.09 67.56 243.67 74.00 240.22 76.18 C 237.31 77.56 234.04 76.19 231.00 77.03 C 231.00 72.22 231.00 67.41 231.00 62.60 C 230.63 62.60 229.90 62.59 229.54 62.59 L 229.69 60.79 Z" />
<path fill="#040706" d=" M 93.29 61.03 C 93.99 61.02 95.38 60.99 96.08 60.97 C 98.23 66.30 98.89 72.32 102.49 76.95 C 99.88 77.05 97.27 77.03 94.68 76.69 C 95.51 75.64 96.34 74.59 97.19 73.56 C 95.46 73.17 93.70 73.00 91.94 72.85 C 91.76 73.16 91.41 73.79 91.23 74.10 C 91.90 74.93 92.50 75.81 93.05 76.72 C 90.88 77.09 88.68 77.02 86.49 76.95 C 90.12 72.33 91.23 66.42 93.29 61.03 Z" />
<path fill="#040706" d=" M 108.41 61.02 C 112.92 61.01 117.43 60.90 121.94 61.12 C 121.96 62.68 121.97 64.24 121.94 65.80 C 121.44 65.86 120.44 65.97 119.94 66.02 C 119.52 64.41 118.92 62.89 117.09 62.56 C 117.00 66.53 116.88 70.51 117.08 74.48 C 117.67 74.95 118.83 75.89 119.42 76.36 C 116.47 77.30 113.25 77.29 110.33 76.27 C 111.00 75.86 112.33 75.05 113.00 74.64 C 112.98 70.60 113.08 66.56 112.89 62.52 C 110.95 62.94 110.48 64.77 109.85 66.37 C 106.82 66.04 108.39 62.99 108.41 61.02 Z" />
<path fill="#040706" d=" M 167.24 62.98 C 169.88 61.08 173.33 60.80 176.44 61.43 C 176.67 63.13 176.91 64.83 177.13 66.53 C 176.53 66.59 175.31 66.69 174.71 66.75 C 174.31 65.43 173.89 64.12 173.47 62.81 C 167.02 63.20 166.09 75.29 173.21 75.32 C 173.30 73.24 172.54 71.56 170.60 70.60 C 173.14 69.81 175.81 69.97 178.43 70.04 C 178.08 70.70 177.39 72.02 177.05 72.68 C 177.02 73.86 176.99 75.04 176.97 76.22 C 173.34 77.28 169.15 77.33 166.05 74.87 C 162.66 71.56 164.04 65.88 167.24 62.98 Z" />
<path fill="#040706" d=" M 149.54 65.83 C 149.98 63.83 151.94 63.24 153.51 62.37 C 153.54 63.55 153.57 64.73 153.59 65.91 C 154.40 65.97 156.01 66.09 156.82 66.15 C 156.68 66.61 156.42 67.54 156.28 68.01 C 155.46 68.01 153.82 68.00 152.99 68.00 C 153.00 70.16 153.01 72.32 153.04 74.48 C 154.62 74.57 156.20 74.68 157.78 74.83 C 155.42 77.04 151.41 77.98 148.99 75.37 C 148.81 72.54 149.68 69.43 147.98 66.90 C 146.13 68.22 144.41 69.70 142.79 71.29 C 144.30 73.22 146.11 74.88 147.64 76.80 C 145.45 77.04 143.23 77.11 141.04 76.83 C 141.04 75.59 141.09 74.36 141.09 73.12 C 140.69 73.35 139.89 73.79 139.50 74.02 C 139.64 74.52 139.93 75.51 140.08 76.01 C 139.80 78.61 136.00 76.26 134.36 76.77 C 135.78 74.94 137.67 73.54 139.26 71.86 C 137.70 69.91 135.89 68.17 134.37 66.18 C 136.76 65.98 139.17 65.98 141.57 65.98 C 141.23 67.14 140.87 68.30 140.52 69.46 C 143.25 70.48 142.87 67.59 142.76 65.84 C 144.40 65.99 146.05 66.11 147.67 66.43 C 148.14 66.28 149.08 65.98 149.54 65.83 Z" />
<path fill="#ffffff" d=" M 93.92 65.20 C 94.53 67.13 95.06 69.07 95.62 71.02 C 94.49 71.00 93.37 70.99 92.24 70.97 C 92.82 69.05 93.37 67.12 93.92 65.20 Z" />
<path fill="#040706" d=" M 123.98 75.05 C 120.74 70.76 126.54 63.99 131.24 66.65 C 133.24 67.43 132.99 70.04 133.69 71.70 C 131.59 73.41 128.80 72.92 126.31 73.35 C 128.20 75.02 130.69 74.66 132.99 74.39 L 133.21 75.94 C 130.24 76.97 126.29 77.78 123.98 75.05 Z" />
<path fill="#040706" d=" M 180.82 68.10 C 183.38 66.76 186.29 65.23 189.10 66.91 C 189.98 69.21 190.09 71.66 190.08 74.09 C 190.48 74.67 191.28 75.84 191.67 76.42 C 188.96 77.09 186.23 76.17 183.52 76.73 C 181.85 77.24 180.82 75.46 179.57 74.72 C 180.90 71.74 184.08 71.03 186.97 70.42 C 186.49 69.94 185.53 68.98 185.05 68.50 C 184.00 68.96 182.98 69.47 181.98 70.01 C 181.69 69.53 181.11 68.58 180.82 68.10 Z" />
<path fill="#040706" d=" M 192.32 67.25 C 193.99 66.80 195.68 66.43 197.38 66.06 L 197.37 67.60 C 199.79 66.37 202.50 65.39 204.70 67.54 C 205.76 66.92 206.81 66.31 207.88 65.71 C 212.86 67.46 209.40 73.42 212.49 76.41 C 208.36 77.64 203.86 76.42 199.59 77.05 C 199.93 76.36 200.62 74.98 200.96 74.29 C 200.99 72.51 201.00 70.74 201.01 68.96 C 200.17 69.03 198.48 69.17 197.64 69.23 C 197.60 70.98 197.58 72.73 197.55 74.48 C 198.00 75.00 198.90 76.03 199.35 76.55 C 197.05 76.99 194.70 77.04 192.36 77.07 C 192.77 76.38 193.59 75.00 194.00 74.31 C 193.90 71.86 194.64 68.95 192.32 67.25 Z" />
<path fill="#040706" d=" M 218.32 66.16 C 221.56 65.30 224.11 68.93 223.26 71.91 C 221.41 73.70 218.59 72.75 216.31 73.31 C 218.19 75.01 220.68 74.68 222.99 74.39 L 223.20 75.94 C 220.38 76.89 216.95 77.68 214.43 75.57 C 211.25 72.42 214.11 66.53 218.32 66.16 Z" />
<path fill="#040706" d=" M 242.56 66.06 C 244.85 65.99 247.14 65.99 249.43 66.03 C 249.11 66.72 248.48 68.10 248.16 68.79 C 248.75 70.52 249.31 72.25 249.88 73.98 C 250.39 72.16 250.83 70.31 251.30 68.47 C 250.88 67.95 250.05 66.91 249.64 66.40 C 251.57 66.12 253.52 65.98 255.48 65.88 C 252.10 71.35 250.86 77.89 246.99 83.09 C 246.28 82.66 244.85 81.80 244.14 81.37 C 245.34 80.12 246.54 78.86 247.72 77.58 C 246.23 73.64 244.88 69.61 242.56 66.06 Z" />
<path fill="#ffffff" d=" M 126.62 70.93 C 127.28 69.68 127.41 67.08 129.44 68.09 C 129.65 68.81 130.07 70.26 130.28 70.99 C 129.37 70.97 127.54 70.94 126.62 70.93 Z" />
<path fill="#ffffff" d=" M 216.65 70.93 C 217.30 69.64 217.37 66.94 219.46 68.16 C 219.67 68.87 220.08 70.28 220.29 70.98 C 219.38 70.97 217.56 70.95 216.65 70.93 Z" />
<path fill="#ffffff" d=" M 204.47 75.23 C 204.93 72.77 203.31 68.55 207.23 68.64 C 207.37 70.83 207.42 73.03 207.52 75.23 C 206.50 75.24 205.49 75.23 204.47 75.23 Z" />
<path fill="#ffffff" d=" M 234.97 68.84 C 235.70 68.80 237.17 68.74 237.90 68.71 C 239.88 69.94 238.67 72.83 238.61 74.74 C 237.45 74.84 236.30 74.93 235.15 75.01 C 235.03 72.95 234.99 70.89 234.97 68.84 Z" />
<path fill="#ffffff" d=" M 182.80 74.09 C 183.95 73.43 185.11 72.78 186.29 72.16 C 186.28 72.85 186.26 74.24 186.25 74.93 C 185.10 74.67 183.95 74.39 182.80 74.09 Z" />
<path fill="#de232e" d=" M 130.02 118.88 C 130.27 113.27 135.46 109.15 140.89 109.04 C 150.26 108.92 159.63 109.05 169.00 109.00 C 168.96 118.03 169.07 127.07 168.97 136.10 C 169.10 141.59 164.60 146.70 159.09 146.98 C 149.39 147.05 139.69 146.97 130.00 147.00 C 130.04 137.63 129.94 128.25 130.02 118.88 Z" />
<path fill="#040706" d=" M 174.00 108.95 C 175.86 109.04 177.77 108.82 179.60 109.29 C 183.76 114.72 187.18 120.70 191.50 126.03 C 195.86 120.58 199.42 114.56 203.60 108.98 C 205.40 108.99 207.20 109.00 209.00 109.01 C 209.00 121.67 209.00 134.34 209.00 147.00 C 206.33 147.00 203.66 147.00 201.00 147.00 C 201.00 139.55 201.02 132.10 201.00 124.64 C 198.24 128.09 195.90 131.83 193.29 135.38 C 192.17 135.88 190.06 136.23 189.32 134.90 C 186.93 131.44 184.60 127.95 182.00 124.65 C 181.98 132.10 182.00 139.55 182.00 147.00 C 179.33 147.00 176.67 147.00 174.00 147.00 C 174.00 134.32 174.00 121.63 174.00 108.95 Z" />
<path fill="#040706" d=" M 226.50 109.66 C 231.90 108.05 237.80 109.34 242.49 112.31 C 246.82 114.82 249.30 119.56 250.55 124.25 C 252.00 129.94 249.77 135.91 246.33 140.42 C 241.07 146.41 231.93 148.68 224.50 145.71 C 218.81 143.81 214.38 138.90 212.84 133.13 C 209.61 123.32 216.40 111.78 226.50 109.66 Z" />
<path fill="#040706" d=" M 252.00 109.00 C 259.00 109.00 266.00 109.00 273.00 109.00 C 272.78 117.50 273.46 126.05 272.64 134.51 C 271.77 137.58 270.55 140.81 267.89 142.77 C 263.37 146.18 257.41 146.37 251.97 146.34 C 251.99 144.30 252.02 142.26 252.09 140.23 C 255.56 139.98 259.18 139.91 262.37 138.32 C 264.76 136.76 266.05 133.91 266.00 131.10 C 266.04 126.06 265.97 121.03 266.00 116.00 C 261.33 116.00 256.67 116.00 252.00 116.00 C 252.00 113.67 252.00 111.33 252.00 109.00 Z" />
<path fill="#040706" d=" M 289.27 109.40 C 290.59 108.73 292.37 108.77 293.71 109.37 C 298.88 121.90 303.89 134.50 309.10 147.00 C 306.69 147.00 304.29 147.00 301.89 146.99 C 300.50 144.11 299.46 141.07 298.53 138.01 C 293.84 138.00 289.16 137.99 284.47 138.01 C 283.53 141.07 282.50 144.11 281.11 147.00 C 278.70 147.00 276.30 147.00 273.90 147.00 C 279.11 134.50 284.12 121.91 289.27 109.40 Z" />
<path fill="#040706" d=" M 311.00 109.00 C 312.65 109.00 314.30 109.00 315.95 109.00 C 321.28 116.47 326.53 123.99 332.00 131.36 C 332.01 123.91 332.00 116.45 332.00 109.00 C 334.66 109.00 337.33 109.00 340.00 109.00 C 340.00 121.66 340.00 134.33 340.00 146.99 C 338.34 147.00 336.69 147.00 335.04 147.01 C 328.95 139.53 323.96 131.25 318.00 123.67 C 317.99 131.44 318.00 139.22 318.00 147.00 C 315.66 147.00 313.33 147.00 311.00 147.00 C 311.00 134.33 311.00 121.67 311.00 109.00 Z" />
<path fill="#040706" d=" M 345.55 118.85 C 349.72 111.34 359.17 107.23 367.48 109.65 C 373.12 110.92 377.66 114.97 380.33 120.00 C 377.69 120.00 375.05 119.99 372.42 120.00 C 368.10 115.35 360.34 113.97 355.19 118.06 C 349.25 122.15 348.16 131.47 353.58 136.44 C 359.29 143.28 371.96 140.69 374.35 132.04 C 369.56 131.96 364.78 132.01 360.00 132.00 C 360.00 129.33 360.00 126.67 360.00 124.00 C 367.34 124.00 374.67 124.00 382.01 124.00 C 382.55 130.00 381.31 136.47 376.78 140.77 C 369.67 149.04 355.26 149.09 348.23 140.71 C 342.61 135.09 341.60 125.68 345.55 118.85 Z" />
<path fill="#ffffff" d=" M 157.82 112.65 C 158.28 114.86 160.04 117.37 158.64 119.50 C 157.63 119.58 156.61 119.62 155.59 119.62 C 156.10 117.22 156.88 114.91 157.82 112.65 Z" />
<path fill="#ffffff" d=" M 228.23 116.04 C 235.65 113.77 244.47 120.12 244.03 128.03 C 244.43 136.01 235.42 142.36 227.98 139.88 C 222.98 138.27 218.55 133.47 218.94 127.97 C 218.57 122.41 223.14 117.58 228.23 116.04 Z" />
<path fill="#ffffff" d=" M 136.16 120.90 C 136.44 117.03 141.40 118.17 144.03 117.94 C 147.23 117.50 149.85 119.40 152.35 121.08 C 152.54 120.23 152.92 118.55 153.11 117.71 C 154.41 119.16 155.59 120.75 157.10 122.01 C 158.26 121.80 159.40 121.54 160.54 121.21 C 161.48 124.79 162.06 128.44 162.61 132.10 C 161.63 131.74 160.66 131.39 159.69 131.02 C 157.61 126.26 152.88 122.24 147.46 122.52 C 145.02 122.91 142.17 123.96 141.35 126.55 C 140.24 130.01 141.08 134.73 144.75 136.28 C 150.60 139.01 157.35 138.18 163.54 137.29 C 162.22 138.62 161.19 140.87 159.00 140.71 C 151.94 140.78 144.86 140.91 137.81 140.50 C 136.87 139.16 135.73 137.81 136.00 136.05 C 136.03 131.00 135.79 125.93 136.16 120.90 Z" />
<path fill="#ffffff" d=" M 291.46 120.09 C 292.65 123.78 294.06 127.40 295.55 130.98 C 292.85 131.01 290.15 131.00 287.45 130.98 C 288.94 127.41 290.37 123.80 291.46 120.09 Z" />
<path fill="#040706" d=" M 276.75 168.59 C 277.46 163.41 284.52 161.03 288.07 164.89 C 290.32 167.68 287.75 170.76 285.71 172.71 C 287.29 173.95 288.85 175.21 290.43 176.45 C 290.80 175.60 291.54 173.90 291.91 173.06 L 290.00 172.99 C 290.00 172.45 290.00 171.36 290.00 170.82 C 292.33 170.81 294.67 170.82 297.00 170.82 C 297.00 171.23 297.00 172.05 297.00 172.45 C 294.36 173.57 293.59 176.59 292.04 178.73 C 293.62 179.61 295.28 180.32 297.04 180.77 C 297.01 181.19 296.95 182.02 296.93 182.43 C 294.08 182.53 290.79 183.91 288.70 181.21 C 284.76 183.22 278.83 184.27 275.80 180.21 C 273.59 177.17 276.72 174.15 279.12 172.52 C 278.28 171.23 277.50 169.92 276.75 168.59 Z" />
<path fill="#ffffff" d=" M 282.43 165.49 C 285.69 164.37 285.76 169.96 283.54 171.24 C 282.01 169.84 280.06 167.12 282.43 165.49 Z" />
<path fill="#ffffff" d=" M 280.29 178.55 C 279.59 176.95 280.41 175.29 280.71 173.71 C 283.00 175.57 285.27 177.47 287.37 179.56 C 285.05 179.74 281.87 180.98 280.29 178.55 Z" />
<path fill="#040706" d=" M 276.68 192.00 C 281.45 192.00 286.23 192.00 291.00 192.00 C 291.00 193.33 291.00 194.65 291.00 195.99 C 290.22 196.00 288.66 196.04 287.88 196.06 C 289.40 199.96 291.20 203.75 292.46 207.75 C 294.92 204.19 296.26 200.02 298.04 196.11 C 297.27 196.07 295.73 196.00 294.97 195.96 C 295.00 194.65 295.04 193.35 295.08 192.05 C 298.78 191.97 302.48 192.00 306.17 192.00 C 306.18 193.20 306.19 194.39 306.21 195.59 C 303.39 195.64 302.66 198.44 301.46 200.42 C 299.53 204.16 297.18 207.67 295.34 211.45 C 294.62 214.22 295.14 217.16 295.01 220.00 C 295.84 220.00 297.50 220.00 298.34 220.00 C 298.33 221.33 298.33 222.66 298.34 224.00 C 293.44 224.00 288.55 224.00 283.66 224.00 C 283.66 222.66 283.66 221.33 283.66 220.00 C 284.45 220.00 286.03 220.00 286.82 220.00 C 286.78 217.36 286.98 214.71 286.68 212.09 C 285.11 208.17 282.80 204.59 281.02 200.76 C 279.89 198.72 279.29 195.94 276.61 195.44 C 276.63 194.29 276.66 193.14 276.68 192.00 Z" />
<path fill="#040706" d=" M 318.28 203.19 C 323.19 202.32 329.21 204.89 330.46 210.09 C 332.41 215.79 328.11 222.41 322.29 223.49 C 316.90 225.04 309.73 222.93 308.06 217.05 C 305.83 210.37 311.54 203.51 318.28 203.19 Z" />
<path fill="#040706" d=" M 333.02 203.46 C 336.24 203.44 339.46 203.46 342.65 202.99 C 342.80 208.26 341.86 213.71 343.46 218.83 C 344.95 218.72 346.44 218.56 347.93 218.35 C 348.03 214.63 347.99 210.90 348.00 207.18 C 347.46 207.18 346.37 207.19 345.83 207.19 C 345.82 206.24 345.80 204.36 345.80 203.42 C 349.08 203.43 352.39 203.53 355.65 203.00 C 355.53 208.47 355.60 213.94 355.60 219.41 C 356.30 219.41 357.70 219.39 358.40 219.38 C 358.38 220.31 358.33 222.17 358.31 223.10 C 355.83 223.38 353.36 223.65 350.89 224.03 C 350.08 223.17 349.28 222.32 348.49 221.46 C 345.47 223.00 341.53 225.45 338.47 222.58 C 333.23 219.15 335.42 212.38 335.00 207.19 C 334.50 207.18 333.49 207.18 332.98 207.18 C 332.99 205.94 333.00 204.70 333.02 203.46 Z" />
<path fill="#ffffff" d=" M 317.43 207.45 C 318.62 206.22 320.27 206.45 321.57 207.38 C 323.23 209.92 322.85 213.15 322.75 216.03 C 322.57 217.73 322.09 220.03 320.04 220.29 C 318.16 221.06 316.28 218.93 316.21 217.13 C 315.98 213.95 315.34 210.16 317.43 207.45 Z" />
</svg>
